name rise31.4854peak64.571fall78.6902.mot
datacolumns 19
datarows 12
range 15.69161000000000 15.70993700000000
endheader
time	ground_force1_vx	ground_force1_vy	ground_force1_vz	ground_force1_px	ground_force1_py	ground_force1_pz	ground_force2_vx	ground_force2_vy	ground_force2_vz	ground_force2_px	ground_force2_py	ground_force2_pz	ground_torque1_x	ground_torque1_y	ground_torque1_z	ground_torque2_x	ground_torque2_y	ground_torque2_z	
15.69161000000000	72.80409299999999	805.66255100000001	57.05208500000000	0.31860000000000	0.00000000000000	0.08982300000000	0.00000000000000	0.00000000000000	0.00000000000000	0.00000000000000	0.00000000000000	0.00000000000000	0.00000000000000	22.90650500000000	0.00000000000000	0.00000000000000	0.00000000000000	0.00000000000000	
15.69328000000000	71.85192700000000	806.11031100000002	57.11635400000000	0.31747100000000	0.00000000000000	0.08988700000000	0.00000000000000	0.00000000000000	0.00000000000000	0.00000000000000	0.00000000000000	0.00000000000000	0.00000000000000	22.96437500000000	0.00000000000000	0.00000000000000	0.00000000000000	0.00000000000000	
15.69495000000000	70.89040000000000	806.38189899999998	57.17333600000000	0.31634800000000	0.00000000000000	0.08995200000000	0.00000000000000	0.00000000000000	0.00000000000000	0.00000000000000	0.00000000000000	0.00000000000000	0.00000000000000	23.02070600000000	0.00000000000000	0.00000000000000	0.00000000000000	0.00000000000000	
15.69661700000000	69.92031500000000	806.47934299999997	57.22295500000000	0.31523000000000	0.00000000000000	0.09001700000000	0.00000000000000	0.00000000000000	0.00000000000000	0.00000000000000	0.00000000000000	0.00000000000000	0.00000000000000	23.07534200000000	0.00000000000000	0.00000000000000	0.00000000000000	0.00000000000000	
15.69827200000000	68.94244900000000	806.40492600000005	57.26509300000000	0.31411500000000	0.00000000000000	0.09008300000000	0.00000000000000	0.00000000000000	0.00000000000000	0.00000000000000	0.00000000000000	0.00000000000000	0.00000000000000	23.12809600000000	0.00000000000000	0.00000000000000	0.00000000000000	0.00000000000000	
15.69993800000000	67.95754700000001	806.16118600000004	57.29959400000000	0.31300200000000	0.00000000000000	0.09015000000000	0.00000000000000	0.00000000000000	0.00000000000000	0.00000000000000	0.00000000000000	0.00000000000000	0.00000000000000	23.17875300000000	0.00000000000000	0.00000000000000	0.00000000000000	0.00000000000000	
15.70162200000000	66.96632900000000	805.75091999999995	57.32626900000000	0.31188900000000	0.00000000000000	0.09021700000000	0.00000000000000	0.00000000000000	0.00000000000000	0.00000000000000	0.00000000000000	0.00000000000000	0.00000000000000	23.22707500000000	0.00000000000000	0.00000000000000	0.00000000000000	0.00000000000000	
15.70327300000000	65.96948999999999	805.17718200000002	57.34490100000000	0.31077500000000	0.00000000000000	0.09028500000000	0.00000000000000	0.00000000000000	0.00000000000000	0.00000000000000	0.00000000000000	0.00000000000000	0.00000000000000	23.27280700000000	0.00000000000000	0.00000000000000	0.00000000000000	0.00000000000000	
15.70493800000000	64.96770500000000	804.44328399999995	57.35524800000000	0.30965900000000	0.00000000000000	0.09035400000000	0.00000000000000	0.00000000000000	0.00000000000000	0.00000000000000	0.00000000000000	0.00000000000000	0.00000000000000	23.31567200000000	0.00000000000000	0.00000000000000	0.00000000000000	0.00000000000000	
15.70661000000000	63.96162900000000	803.55279199999995	57.35705200000000	0.30854000000000	0.00000000000000	0.09042400000000	0.00000000000000	0.00000000000000	0.00000000000000	0.00000000000000	0.00000000000000	0.00000000000000	0.00000000000000	23.35538400000000	0.00000000000000	0.00000000000000	0.00000000000000	0.00000000000000	
15.70827300000000	62.95189800000000	802.50952500000005	57.35004100000000	0.30741500000000	0.00000000000000	0.09049500000000	0.00000000000000	0.00000000000000	0.00000000000000	0.00000000000000	0.00000000000000	0.00000000000000	0.00000000000000	23.39164800000000	0.00000000000000	0.00000000000000	0.00000000000000	0.00000000000000	
15.70993700000000	61.93913300000000	801.31754999999998	57.33393400000000	0.30628400000000	0.00000000000000	0.09056600000000	0.00000000000000	0.00000000000000	0.00000000000000	0.00000000000000	0.00000000000000	0.00000000000000	0.00000000000000	23.42416000000000	0.00000000000000	0.00000000000000	0.00000000000000	0.00000000000000	
